# xmcd
#
# Track frame offsets:
#  183
#  20213
#  39665
#  64318
#  84045
#  108715
#  139275
#  160245
#  201270
#  224868
#
# Disc length: 3271 seconds
#
# Revision: 1
# Processed by: cddbd v1.5.1PL2 Copyright (c) Steve Scherf et al.
# Submitted via: Collectorz.com_Music_Collector 6.11
#
DISCID=9c0cc50a
DTITLE=J.B. Hutto - High and Lonesome
DYEAR=1992
DGENRE=Blues
TTITLE0=Jimmy Reed - High and Lonesome
TTITLE1=J.B.'s Boogie
TTITLE2=Big Bill Broonzy - Feel So Good
TTITLE3=Too Much Alcohol
TTITLE4=Winley - Byrd - Hide And Seek
TTITLE5=B.B. King - Laundromat Blues
TTITLE6=Coo Coo Baby
TTITLE7=Thomas - Walking The Dog
TTITLE8=Come Back Baby
TTITLE9=J. Leiber - M. Stoller - Kansas City
EXTD=
EXTT0=
EXTT1=
EXTT2=
EXTT3=
EXTT4=
EXTT5=
EXTT6=
EXTT7=
EXTT8=
EXTT9=
PLAYORDER=
